<svg xmlns="http://www.w3.org/2000/svg" xmlns:xlink="http://www.w3.org/1999/xlink" width="82" height="70" viewBox="0 0 82 70">
  <metadata><?xpacket begin="﻿" id="W5M0MpCehiHzreSzNTczkc9d"?>
<x:xmpmeta xmlns:x="adobe:ns:meta/" x:xmptk="Adobe XMP Core 5.6-c138 79.159824, 2016/09/14-01:09:01        ">
   <rdf:RDF xmlns:rdf="http://www.w3.org/1999/02/22-rdf-syntax-ns#">
      <rdf:Description rdf:about=""/>
   </rdf:RDF>
</x:xmpmeta>
                                                                                                    
                                                                                                    
                                                                                                    
                                                                                                    
                                                                                                    
                                                                                                    
                                                                                                    
                                                                                                    
                                                                                                    
                                                                                                    
                                                                                                    
                                                                                                    
                                                                                                    
                                                                                                    
                                                                                                    
                                                                                                    
                                                                                                    
                                                                                                    
                                                                                                    
                                                                                                    
                           
<?xpacket end="w"?></metadata>
<defs>
    <style>
      .cls-1 {
        fill: #737373;
        fill-rule: evenodd;
        filter: url(#filter);
      }
    </style>
    <filter id="filter" x="118" y="5654" width="82" height="70" filterUnits="userSpaceOnUse">
      <feFlood result="flood" flood-color="#a4c58c"/>
      <feComposite result="composite" operator="in" in2="SourceGraphic"/>
      <feBlend result="blend" in2="SourceGraphic"/>
    </filter>
  </defs>
  <path id="new_vector_shape_done" class="cls-1" d="M158.575,5654a5.053,5.053,0,0,1,2.843,1.04c1.459,0.76,2.938,1.44,4.358,2.18,3.9,2.04,7.85,3.77,11.749,5.8,1.484,0.77,3.024,1.48,4.548,2.28a11.938,11.938,0,0,0,1.516.85h15.35a7.555,7.555,0,0,1,.758.67c0.476,0.6.284,2.18,0.284,3.23v50.05c0,1.44.2,2.93-.663,3.51-0.786.62-3.252,0.29-4.548,0.29H122.949c-1.564,0-4.049.33-4.643-.67-0.515-.87-0.19-3.13-0.189-4.37V5667.2c0.351-.37.681-0.7,1.042-1.05h15.349a9.239,9.239,0,0,0,1.137-.66c1.085-.57,2.177-1.07,3.222-1.62,3.214-1.67,6.49-3.18,9.664-4.84,2.337-1.22,4.715-2.32,7.012-3.51C156.487,5655.02,157.833,5654.71,158.575,5654Zm0.284,3.22c-0.689.81-2.852,1.46-3.885,2-3.054,1.59-6.232,3.15-9.285,4.75-0.723.38-4,1.71-4.264,2.18h35.247v-0.19c-1.152-.15-3.406-1.63-4.453-2.18-3.145-1.65-6.328-3.02-9.475-4.66C161.723,5658.59,160.046,5657.38,158.859,5657.22Zm-37.71,11.97v51.67h75.8v-51.67h-75.8Zm54.955,9.12c5.855-.07,8.748,2.35,10.707,6.17a10.332,10.332,0,0,1,.852,6.75,13.068,13.068,0,0,1-1.516,3.6,14.867,14.867,0,0,0-1.326,1.52v17.38c-0.351.37-.681,0.7-1.042,1.05a2.7,2.7,0,0,1-1.327-.19l-0.947-1.05c-0.948-.91-1.895-1.83-2.843-2.75-0.458-.46-0.82-1.23-1.611-1.33l-5.021,5.13a2.7,2.7,0,0,1-1.327.19,0.951,0.951,0,0,0-.379-0.19,5.224,5.224,0,0,1-.663-0.86v-17.38c-2.082-1.47-3.953-6.78-2.653-10.44a11.694,11.694,0,0,1,4.074-5.7,13.032,13.032,0,0,1,3.127-1.52A10.608,10.608,0,0,0,176.1,5678.31Zm-44.817,3.04h28.235a5.057,5.057,0,0,1,.853.66,1.644,1.644,0,0,1-.473,2.09c-0.785.63-5.154,0.29-6.633,0.29H135.835c-2.623,0-5.6.81-5.59-2a2.936,2.936,0,0,0,.284-0.47C130.731,5681.68,131.086,5681.59,131.287,5681.35Zm45.006,0-2.084.57a8.338,8.338,0,0,0-4.169,4.46c-1.3,3.44.45,6.36,2.084,8.07,0.158,0.23.316,0.45,0.474,0.67,0.421,0.25,1.316.53,1.99,0.85a5.856,5.856,0,0,0,3.6.57c2.825-.69,4.677-1.87,5.875-4.17,2.585-4.98-1.137-9.65-4.927-10.83A9.573,9.573,0,0,0,176.293,5681.35Zm-45.006,6.08h19.139a1.61,1.61,0,0,1,.38,2.75c-0.689.55-3.755,0.29-5.022,0.29H134.6c-2.347,0-4.371.46-4.358-2C130.6,5688.11,130.926,5687.78,131.287,5687.43Zm0,6.07h19.139a0.749,0.749,0,0,0,.38.19,5.682,5.682,0,0,1,.663.86,1.7,1.7,0,0,1-.663,1.71c-0.689.55-3.755,0.28-5.022,0.28H134.6c-2.347,0-4.371.47-4.358-1.99a5.682,5.682,0,0,1,.663-0.86A0.749,0.749,0,0,0,131.287,5693.5Zm41.406,5.13v10.83h0.189a19.054,19.054,0,0,1,2.653-2.66,4.236,4.236,0,0,1,1.232-1.14h0.948c0.9,0.88,1.861,1.68,2.747,2.57a4.24,4.24,0,0,0,1.327,1.23v-10.83c-1.586.25-3.391,1.49-5.685,0.95C175.036,5699.33,173.612,5698.74,172.693,5698.63Zm-37.711,9.5c-0.7-.01-1.379-0.5-1.705-0.38a3.572,3.572,0,0,1-.664.95c-1.159.66-1.847-.29-2.368-0.85a10.391,10.391,0,0,1,2.274-6.65c0.93-1.27,2.365-.43,2.842.66a2.828,2.828,0,0,1,1.8-.09,4.257,4.257,0,0,1,.664.85v4.56h0.189v-0.19c0.492-.68.333-1.53,1.042-1.99a1.6,1.6,0,0,1,1.137-.29,3.209,3.209,0,0,1,1.137,1.14c0.474-.32.948-0.63,1.422-0.95,0.446-.19.962-0.21,1.421-0.38a1.37,1.37,0,0,1,1.326-1.14,0.842,0.842,0,0,1,.758.1,1.238,1.238,0,0,1,.853,1.23c0.472,1.01-1.192,2.84-1.99,3.04-0.528.14-.857-0.25-1.326,0-0.657.35-1.192,1.16-1.9,1.52-0.523.27-1.3,0.16-1.8,0.47-0.838.91-.94,2.02-2.748,2a2.671,2.671,0,0,0-.474-0.29A5.33,5.33,0,0,1,134.982,5708.13Z" transform="translate(-118 -5654)"/>
</svg>
