<svg xmlns="http://www.w3.org/2000/svg" xmlns:xlink="http://www.w3.org/1999/xlink" width="85" height="85" viewBox="0 0 85 85">
  <metadata><?xpacket begin="﻿" id="W5M0MpCehiHzreSzNTczkc9d"?>
<x:xmpmeta xmlns:x="adobe:ns:meta/" x:xmptk="Adobe XMP Core 5.6-c138 79.159824, 2016/09/14-01:09:01        ">
   <rdf:RDF xmlns:rdf="http://www.w3.org/1999/02/22-rdf-syntax-ns#">
      <rdf:Description rdf:about=""/>
   </rdf:RDF>
</x:xmpmeta>
                                                                                                    
                                                                                                    
                                                                                                    
                                                                                                    
                                                                                                    
                                                                                                    
                                                                                                    
                                                                                                    
                                                                                                    
                                                                                                    
                                                                                                    
                                                                                                    
                                                                                                    
                                                                                                    
                                                                                                    
                                                                                                    
                                                                                                    
                                                                                                    
                                                                                                    
                                                                                                    
                           
<?xpacket end="w"?></metadata>
<defs>
    <style>
      .cls-1 {
        fill: #737373;
        fill-rule: evenodd;
        filter: url(#filter);
      }
    </style>
    <filter id="filter" x="117" y="5228" width="85" height="85" filterUnits="userSpaceOnUse">
      <feFlood result="flood" flood-color="#a4c58c"/>
      <feComposite result="composite" operator="in" in2="SourceGraphic"/>
      <feBlend result="blend" in2="SourceGraphic"/>
    </filter>
  </defs>
  <path id="new_vector_shape_done" class="cls-1" d="M172.644,5228h0.946a0.951,0.951,0,0,0,.379.19,5.136,5.136,0,0,1,.662.85,18.9,18.9,0,0,1-3.785,12.43,8.948,8.948,0,0,1-1.608,1.89,31.114,31.114,0,0,1-2.649,1.9,3.612,3.612,0,0,0-1.23.67,9.27,9.27,0,0,0-.473,1.13c-0.7,1.36-1.275,2.73-1.987,4.18a67.406,67.406,0,0,0-4.163,9.77h0.189a12.3,12.3,0,0,1,2.838-2.66c0.689-.52,1.29-1.28,1.987-1.8,1.785-1.33,3.577-2.49,5.488-3.7,1.258-.8,2.388-2.06,4.352-2.09,0.471,0.58.967,0.67,1.041,1.71a18,18,0,0,0-1.135,2.75c-1.228,2.48-2.2,5.26-3.312,7.87h0.284c0.368-.75,2.035-1.75,2.744-2.27,2.1-1.56,3.957-3.56,6.055-5.12,0.7-.53,2.751-1.8,3.028-2.57,0.159-.42-0.3-1.8-0.095-2.65a13.686,13.686,0,0,1,1.514-4.18,10.868,10.868,0,0,1,6.15-4.45c3.707-1.14,8.165,1.36,9.556,3.22a13.625,13.625,0,0,1,2.082,3.61c2.132,6.25-3.042,11.28-7.38,12.52-1.707.48-3.466-.14-5.015-0.19-0.66.84-2.407,1.55-2.838,2.46a18.968,18.968,0,0,1,4.73.95c3.707,1.02,8.738,1.81,10.5,4.65,0.57,0.92.378,2.8,0.378,4.27,0,4.86.429,6.91-3.028,8.54a26.629,26.629,0,0,1-2.46,10.9c-3.8,9.01-10.687,17.54-20.72,20.21H143.313a24.617,24.617,0,0,1-3.784-1.33c-8.151-4.02-14.19-11.17-17.5-20.01a56.244,56.244,0,0,1-1.7-6.83q-0.095-1.47-.19-2.94c-0.252-.13-0.5-0.26-0.756-0.38a7.292,7.292,0,0,1-1.893-1.9c-0.767-1.25-.378-5.32-0.378-7.3v-2.47a5.335,5.335,0,0,1,2.649-2.75c3.351-2.12,7.81-2.71,12.3-3.8,1.613-.39,3.254-0.29,4.825-0.66,0.6-.14,1.519.08,1.8-0.38-0.888-.99-1.194-2.64-1.7-3.98-1.135-2.99-1.728-6.32-2.649-9.68l-0.189-1.8c-0.474-1.97-.89-3.64,1.8-3.61,0.513,0.44,1.365.33,2.082,0.57a35.785,35.785,0,0,1,5.109,2.09,21.061,21.061,0,0,1,11.543,15.56h0.662c2.58-4.61.408-11.41-1.23-15.18a16.5,16.5,0,0,1-13.624-7.59c-0.854-1.28-2.176-2.91-2.176-4.93a3.639,3.639,0,0,1,.662-0.85,4.05,4.05,0,0,1,2.271-.29,20.485,20.485,0,0,1,4.92.76c4.631,1.31,8.144,3.1,9.745,7.4a22.068,22.068,0,0,1,.568,2.65v1.05c0.509,1.28,1.378,2.68,1.892,4.08,0.241,0.65.51,3.04,0.946,3.32a3.961,3.961,0,0,1,.568-1.24c0.4-.8.535-1.58,0.946-2.37,0.511-.98,1.3-2.12,1.7-3.13v-2.18c0.452-1.98.482-3.96,1.136-5.69a16.123,16.123,0,0,1,5.582-7.49,12.421,12.421,0,0,1,1.987-1.14A5.225,5.225,0,0,0,172.644,5228Zm-1.419,3.98c-0.545.81-1.679,1.2-2.271,1.99a13.5,13.5,0,0,0-3.217,8.16h0.189c0.6-.78,1.674-1.2,2.271-1.99a13.815,13.815,0,0,0,3.217-8.16h-0.189Zm-17.977,11.1c-0.149-4.74-6.224-6.88-10.881-7.4v0.1h-0.095v0.19a3.827,3.827,0,0,1,.568.94c0.456,0.65,1.028,1.26,1.514,1.9C145.765,5240.69,150.069,5242.93,153.248,5243.08Zm35.764,2.18a7.45,7.45,0,0,0,1.325,2.56,16.111,16.111,0,0,0,5.015,5.41c0.477,0.32,2.4,1.72,2.838,1.33,0.884-1.09.779-3.85,0.284-5.22-0.943-2.61-2.184-3.72-5.015-4.46a6.006,6.006,0,0,0-2.46-.19C190.355,5244.85,189.673,5245.15,189.012,5245.26Zm-51.849,1.52a26.475,26.475,0,0,0,1.325,6.16c1.55,5.05,2.9,9.8,6.434,12.81a14.359,14.359,0,0,0,1.8,1.71c0.414,0.23.9,0.16,1.325,0.38a8.316,8.316,0,0,0,1.514.95v-0.19a20.673,20.673,0,0,1-1.419-2.94,59.757,59.757,0,0,0-3.974-6.26c-0.844-1.18-2.836-2.75-2.839-4.56,0.588-.63.683-1.06,1.987-1.04a49.4,49.4,0,0,1,6.529,8.72c0.42,0.68,1.6,3.53,2.081,3.8v-2.85a6.6,6.6,0,0,1-.189-1.61,23.454,23.454,0,0,0-1.325-4.55,19.261,19.261,0,0,0-8.988-8.82C140.245,5247.87,138.753,5246.87,137.163,5246.78Zm58.756,10.24a6.673,6.673,0,0,1-2.46-1.42,19.658,19.658,0,0,1-4.825-4.65c-0.45-.63-1.664-3.35-2.271-3.51-0.28,1-.851,1.89-1.135,3.13a5.663,5.663,0,0,0,.189,2.37c0.751,2.82,1.833,4.1,4.447,5.03a5.99,5.99,0,0,0,3.122.38c1.108-.26,2-0.77,2.933-1.04v-0.29Zm-26.4-.85a25.942,25.942,0,0,1-3.406,2.37,33.118,33.118,0,0,0-7.38,7.49,9.947,9.947,0,0,0-2.271,5.89h0.094v0.09c7.385-1.41,8.5-4.7,11.07-10.81a40.947,40.947,0,0,0,2.082-5.03h-0.189Zm-11.543,20.39a27.339,27.339,0,0,0,5.3-.09c0.663-.14,1.562.19,2.082-0.1a9.22,9.22,0,0,0,.757-0.75c1.146-.86,2.188-1.83,3.311-2.66,3.3-2.45,6.35-5.14,9.651-7.59a11.3,11.3,0,0,0,1.7-1.42,2.526,2.526,0,0,1,.568-0.86c0.332-.2.734-0.16,1.04-0.37,0.842-.59,1.543-1.48,2.366-2.09a4.12,4.12,0,0,0,1.514-1.33c-0.954-.33-2.31-2.12-2.744-3.04-1.445.85-2.558,2.25-3.879,3.23-3.981,2.96-7.576,6.33-11.544,9.3-1.611,1.2-2.921,2.9-4.636,3.98-1.735,1.09-3.587,1.39-5.677,2.18A4.713,4.713,0,0,1,157.979,5276.56Zm-18.64-11.19a6.673,6.673,0,0,1-1.7.19c-1.3.31-2.764,0.23-4.163,0.57-3.238.79-6.617,1.22-9.461,2.28-1.144.42-3.412,0.82-3.785,1.89-0.394.73,2.725,2.4,3.879,2.09,2.281-.62,4.973-0.93,7.475-1.52h0.946c1.684-.39,3.8-0.36,5.488-0.76h1.04c1.122-.25,2.6-0.31,3.69-0.57,0.652-.15,1.154.12,1.514-0.28a13.614,13.614,0,0,1-3.69-3.89h-1.23Zm43.713,0.66a15.5,15.5,0,0,1-1.893,1.43c-0.591.44-1.112,1.08-1.7,1.52a3.014,3.014,0,0,0-1.135.94h1.041c0.8,0.49,3.665.29,4.825,0.57,2.134,0.52,4.476.53,6.623,1.14,1.152,0.33,2.56.79,3.69,1.04,1.054,0.24,4.258-1.47,4.352-2.37-0.22-.25-0.441-0.5-0.662-0.76-1.393-.85-3-0.95-4.731-1.51A59.229,59.229,0,0,0,183.052,5266.03Zm-8.137,6.55a19.469,19.469,0,0,1-1.8,1.33c-0.429.32-.8,0.82-1.23,1.14a4.038,4.038,0,0,0-1.419,1.13h1.987c0.789-.47,3.839-0.11,5.014-0.37,1.131-.26,2.449-0.1,3.69-0.38,2.162-.5,4.569-0.61,6.718-1.05v-0.09c-0.095-.03-0.189-0.07-0.284-0.1-0.752-.45-2.215-0.23-3.217-0.47-2.162-.52-4.83-0.45-7.1-0.95C176.437,5272.58,175.605,5272.82,174.915,5272.58Zm-36.616.57a6.179,6.179,0,0,1-1.7.19,32.31,32.31,0,0,1-6.15.76v0.19q3.168,0.465,6.339.95c0.528-.79,1.916-1.36,2.27-2.09H138.3Zm8.42,0.57a4.333,4.333,0,0,1-1.135.19,21.784,21.784,0,0,0-3.217.95,9.294,9.294,0,0,0-5.015,4.83,12.053,12.053,0,0,0-.378,2.09,8.821,8.821,0,0,0-.189,3.32c0.189,0.8.351,1.93,0.567,2.66a37.823,37.823,0,0,0,1.136,3.79,1.937,1.937,0,0,0,.567,1.23c0.445-1.41,1.668-2.65,2.461-3.79,2.322-3.34,4.664-6.65,7.947-9.01a13.247,13.247,0,0,1,2.839-1.52,7.8,7.8,0,0,0,1.8-.66l0.852-1.05c0.053-1.1-.265-2.69-1.23-2.75-0.793.63-2.705,1.1-3.69,1.62a17.487,17.487,0,0,0-6.055,4.93c-0.971,1.37-.816,3.58-3.123,3.6-0.581-.66-1.059-0.63-1.041-1.99a14.21,14.21,0,0,0,.947-2.09c0.474-.78,1.059-1.54,1.608-2.27a18.577,18.577,0,0,1,2.933-2.75c0.562-.41,1.58-0.7,1.892-1.33h-0.473Zm-26.587.57a23.836,23.836,0,0,0,.095,4.17,38.761,38.761,0,0,0,6.434,2.66c1.149,0.4,2.416.44,3.5,0.76,0.441,0.12,3.481.49,3.5,0.47,0.344-.41.112-0.97,0.284-1.61,0.237-.89.642-1.79,0.852-2.66H134.7v-0.09a17.593,17.593,0,0,1-3.974-.67c-0.536-.06-1.072-0.12-1.608-0.19-1.971-.53-4.09-0.82-5.961-1.51A21.665,21.665,0,0,0,120.132,5274.29Zm78.531,0a4.6,4.6,0,0,1-1.23.57,42.11,42.11,0,0,1-6.623,2.08c-0.577.17-.915,0.03-1.514,0.19-1.929.51-4.32,0.65-6.339,1.14-0.914.06-1.829,0.13-2.744,0.19-1.405.33-3.3,0.24-4.731,0.57h-1.8c-0.83.18-2.069,0.09-2.933,0.28h-1.8c-0.769.18-1.953-.1-2.838,0.1-2.559.57-6.806,0.19-9.746,0.19-0.871,1.09-2.162,1.23-3.5,1.9a14.9,14.9,0,0,0-1.987,1.32,3.2,3.2,0,0,0-1.324,1.14h2.649c0.634,0.4,2.012-.08,2.839.1a17.634,17.634,0,0,0,3.122.09h5.582a16.725,16.725,0,0,0,2.933-.19c1.534-.34,3.273.11,4.636-0.19,0.966-.21,2.039-0.01,2.839-0.19h1.608c1.423-.32,3.25-0.24,4.636-0.57,1.363-.31,2.645-0.05,3.974-0.38,2.417-.58,5.135-0.83,7.38-1.51,0.481-.15.751-0.05,1.23-0.19a28.992,28.992,0,0,0,4.353-1.71c0.57-.29,1.193-0.33,1.419-0.95,0.3-.48.1-3.18,0.094-3.98h-0.189Zm-75.314,8.91c-0.334,1.05.288,3.06,0.568,3.99,0.4,1.33.479,2.47,0.946,3.7a42.121,42.121,0,0,0,2.649,5.31c3.482,6.28,8.718,11.49,16.18,13.75h31.6c8.225-2.51,13.622-8.47,17.22-15.65a28.6,28.6,0,0,0,3.217-11h-0.094v-0.1c-2.579,1.09-5.786,1.37-8.7,2.09-1.163.29-2.131,0.1-3.312,0.38-2.414.57-5.341,0.38-7.853,0.95h-1.514a41.13,41.13,0,0,1-4.636.38h-2.46a34.5,34.5,0,0,1-6.244.19c-3-.03-5.993-0.07-8.989-0.1-0.738-.16-1.888.1-2.744-0.09a11.868,11.868,0,0,0-2.46-.19c-0.533.93-1.378,1.69-1.987,2.56-0.912,1.3-1.613,2.62-2.46,3.98-0.32.52-.839,1.08-1.135,1.62-0.7,1.26-.836,2.86-2.838,2.84-1.887-1.91-2.857-5.56-3.785-8.44-0.274-.85-0.283-3.21-0.662-3.79v-0.1a25.551,25.551,0,0,1-6.15-1.14A29.318,29.318,0,0,1,123.349,5283.2Zm61.406,5.51H185.7a0.824,0.824,0,0,0,.378.18,5.682,5.682,0,0,1,.663.86,14.465,14.465,0,0,1-1.514,5.41c-1.99,4.73-3.984,8.35-8.421,10.62-1.178.6-3.836,1.62-5.961,1.14a24.707,24.707,0,0,1-5.677-1.71,16.7,16.7,0,0,0-1.8-1.14H161.29c-2.7-.6-7.892-0.57-7.853-3.7,0.588-.63.682-1.06,1.987-1.04,0.95,1.11,5.805,2.03,8.042,1.61,0.519-1.39,2.877-2.84,4.069-3.7a73.4,73.4,0,0,1,12.3-6.64c1.288-.59,2.645-0.98,3.879-1.52A3.2,3.2,0,0,0,184.755,5288.71Zm-1.987,3.98c-0.82.7-2.221,0.83-3.217,1.33-2.733,1.37-5.555,2.62-8.042,4.17-1,.63-2.464,1.14-3.123,2.09h0.473a4.712,4.712,0,0,1,1.514-.38,8.9,8.9,0,0,1,3.5-.76,8.677,8.677,0,0,0,.757.85,4.1,4.1,0,0,1-.189,1.52,19.352,19.352,0,0,1-5.393,1.8v0.19a9.4,9.4,0,0,1,1.987.38,6.76,6.76,0,0,0,3.5-.38c3.45-1.2,5.064-3.29,6.623-6.35,0.491-.97.976-2.1,1.42-3.13a3.176,3.176,0,0,0,.283-1.24v-0.09h-0.094Z" transform="translate(-117 -5228)"/>
</svg>
