<svg xmlns="http://www.w3.org/2000/svg" xmlns:xlink="http://www.w3.org/1999/xlink" width="97" height="70" viewBox="0 0 97 70">
  <metadata><?xpacket begin="﻿" id="W5M0MpCehiHzreSzNTczkc9d"?>
<x:xmpmeta xmlns:x="adobe:ns:meta/" x:xmptk="Adobe XMP Core 5.6-c138 79.159824, 2016/09/14-01:09:01        ">
   <rdf:RDF xmlns:rdf="http://www.w3.org/1999/02/22-rdf-syntax-ns#">
      <rdf:Description rdf:about=""/>
   </rdf:RDF>
</x:xmpmeta>
                                                                                                    
                                                                                                    
                                                                                                    
                                                                                                    
                                                                                                    
                                                                                                    
                                                                                                    
                                                                                                    
                                                                                                    
                                                                                                    
                                                                                                    
                                                                                                    
                                                                                                    
                                                                                                    
                                                                                                    
                                                                                                    
                                                                                                    
                                                                                                    
                                                                                                    
                                                                                                    
                           
<?xpacket end="w"?></metadata>
<defs>
    <style>
      .cls-1 {
        fill: #737373;
        fill-rule: evenodd;
        filter: url(#filter);
      }
    </style>
    <filter id="filter" x="110" y="5450" width="97" height="70" filterUnits="userSpaceOnUse">
      <feFlood result="flood" flood-color="#a4c58c"/>
      <feComposite result="composite" operator="in" in2="SourceGraphic"/>
      <feBlend result="blend" in2="SourceGraphic"/>
    </filter>
  </defs>
  <path id="new_vector_shape_done" class="cls-1" d="M133.7,5450.03c4.849-.08,9.883.05,13.858,1.04,1.975,0.5,3.711.52,5.5,1.14a24.76,24.76,0,0,1,3.892,1.7,6.623,6.623,0,0,0,1.708,1.13,4.194,4.194,0,0,1,1.329-.94,23.766,23.766,0,0,1,6.074-2.46c0.833-.25,1.5-0.16,2.373-0.38,1.75-.45,4-0.51,5.884-0.95h1.519c1.191-.25,2.8.11,4.176-0.18a10.053,10.053,0,0,1,3.417,0c1.374,0.3,2.987-.08,4.176.18h1.519c0.977,0.23,2.143.13,3.227,0.38a65.668,65.668,0,0,1,7.308,1.71c2.6,0.96,5.228,1.95,6.643,4.06,0.827,1.24.665,3.42,0.665,5.49v40.1c0,5.52.133,11.29-.1,16.65a4.057,4.057,0,0,1-1.614,1.23,3.393,3.393,0,0,1-1.708-.38c-1.138-.32-2.408-0.31-3.512-0.56-1.232-.28-2.559-0.13-3.7-0.38h-1.424c-0.828-.18-1.943.02-2.942-0.19a33.732,33.732,0,0,0-6.264-.29c-2.127,0-4.675-.42-6.644,0-0.83.18-1.946-.05-2.658,0.1h-2.467c-1.1.23-2.643,0.15-3.7,0.38-1.107.06-2.214,0.12-3.322,0.19-1.929.43-4.066,0.3-6.074,0.75a6.789,6.789,0,0,1-2.847.38c-2.433-.58-5.375-0.57-7.878-1.13-1.343-.31-2.827-0.11-4.081-0.38-1.36-.07-2.721-0.13-4.081-0.19H140.44a17,17,0,0,0-4.935-.1c-0.682.12-1.852-.15-2.563,0q-3.275.06-6.549,0.1c-0.968.21-2.2-.05-3.322,0.19-2.567.55-5.561,0.36-7.972,0.94-1.715.42-3.831,0.99-4.746-.37-0.6-.9-0.284-3.26-0.284-4.64v-56.47a5.043,5.043,0,0,0,.569-1.23,6.925,6.925,0,0,1,1.424-1.61c2.8-2.09,6.267-2.96,10.25-3.97,2.606-.66,5.532-0.36,8.257-0.94C131.469,5449.93,133.006,5450.47,133.7,5450.03Zm-1.613,4.07a7.4,7.4,0,0,1-1.613.09c-1.151.26-2.383,0.01-3.607,0.29-4.691,1.08-9.8,1.18-12.718,3.97v52.68a32.323,32.323,0,0,0,0,4.17,0.516,0.516,0,0,0,.284.09c0.685-.45,1.836-0.17,2.753-0.38,1.5-.33,3.4-0.23,4.935-0.56h1.8c1.06-.23,2.463.07,3.7-0.19a35.311,35.311,0,0,1,6.644-.19,175.4,175.4,0,0,1,22.114,1.51c0.405-1.23.095-3.9,0.095-5.39v-51.55a0.642,0.642,0,0,1-.095-0.38C150.505,5454.52,141.742,5454.17,132.088,5454.1Zm28.473,61.48a37.118,37.118,0,0,0,5.5-.76c1.313-.29,2.769-0.11,3.986-0.37h1.614c1.429-.31,3.362-0.06,4.84-0.38H184a152.022,152.022,0,0,1,18.888,1.32v-57.04c-0.353-.22-0.589-0.65-0.949-0.85a21.276,21.276,0,0,0-3.132-1.13c-4.543-1.68-10.373-2.27-16.515-2.27-4.32,0-8.624.03-12.149,0.94-0.646.17-1.066,0.01-1.708,0.19-2.895.81-5.987,1.41-7.878,3.22v57.13Zm-36.825-44.46h16.7c3.109,0,5.9-.73,5.885,2.56-0.464.51-.592,1.17-1.329,1.42-1.177.4-3.787,0.09-5.22,0.09H128.2c-3.187,0-6.008.74-5.98-2.65a6.3,6.3,0,0,1,.854-1.13A5.055,5.055,0,0,0,123.736,5471.12Zm48.594,0h16.7c1.879,0,5-.45,5.5.95,1.1,1.11-.158,3.03-1.519,3.03-0.583.36-3.965,0.09-4.935,0.09H175.367c-1.961,0-4.175.25-4.365-1.51C170.1,5472.55,171.841,5471.55,172.33,5471.12Zm-48.594,12.11h16.7c3.114,0,5.9-.74,5.885,2.56-0.467.51-.592,1.15-1.329,1.41-1.147.41-3.809,0.1-5.22,0.1H128.2c-3.183,0-6.008.73-5.98-2.65a6.87,6.87,0,0,1,.759-1.04A7.692,7.692,0,0,0,123.736,5483.23Zm48.689,0h16.7c2.889,0,5.773-.58,5.789,2.37-0.466.61-.56,1.3-1.329,1.6-1,.4-3.659.1-4.935,0.1H177.076c-2.279,0-5.851.56-6.074-1.51a1.7,1.7,0,0,1,0-1.42c0.223-.18.268-0.49,0.474-0.67C171.741,5483.48,172.153,5483.45,172.425,5483.23Zm-48.689,12.11h21.07a3.632,3.632,0,0,1,1.519,1.42c0.012,1.38-.352,2.21-1.329,2.55-1.206.42-4.025,0.1-5.5,0.1h-11.01c-1.354,0-3.829.28-4.935-.1a3.626,3.626,0,0,1-1.329-1.32C122.176,5495.94,122.734,5496.22,123.736,5495.34Zm48.689,0h16.7c2.894,0,5.772-.58,5.789,2.36-0.458.6-.551,1.34-1.329,1.61-1.122.4-3.74,0.1-5.125,0.1H177.076c-2.279,0-5.851.56-6.074-1.52a1.7,1.7,0,0,1,0-1.42,4.878,4.878,0,0,0,.379-0.56A11.73,11.73,0,0,1,172.425,5495.34Z" transform="translate(-110 -5450)"/>
</svg>
