<svg xmlns="http://www.w3.org/2000/svg" xmlns:xlink="http://www.w3.org/1999/xlink" width="14.875" height="14.9" viewBox="0 0 14.875 14.9">
  <metadata><?xpacket begin="﻿" id="W5M0MpCehiHzreSzNTczkc9d"?>
<x:xmpmeta xmlns:x="adobe:ns:meta/" x:xmptk="Adobe XMP Core 5.6-c138 79.159824, 2016/09/14-01:09:01        ">
   <rdf:RDF xmlns:rdf="http://www.w3.org/1999/02/22-rdf-syntax-ns#">
      <rdf:Description rdf:about=""/>
   </rdf:RDF>
</x:xmpmeta>
                                                                                                    
                                                                                                    
                                                                                                    
                                                                                                    
                                                                                                    
                                                                                                    
                                                                                                    
                                                                                                    
                                                                                                    
                                                                                                    
                                                                                                    
                                                                                                    
                                                                                                    
                                                                                                    
                                                                                                    
                                                                                                    
                                                                                                    
                                                                                                    
                                                                                                    
                                                                                                    
                           
<?xpacket end="w"?></metadata>
<defs>
    <style>
      .cls-1 {
        fill: #737373;
        fill-rule: evenodd;
        filter: url(#filter);
      }
    </style>
    <filter id="filter" x="546.344" y="11307.2" width="14.875" height="14.9" filterUnits="userSpaceOnUse">
      <feFlood result="flood" flood-color="#7eb252"/>
      <feComposite result="composite" operator="in" in2="SourceGraphic"/>
      <feBlend result="blend" in2="SourceGraphic"/>
    </filter>
  </defs>
  <path id="new_vector_shape_done" class="cls-1" d="M548.826,11307.2a2.262,2.262,0,0,1,1.862,1c0.529,0.6,1.059,1.1,1.588,1.6a2.072,2.072,0,0,1,.6.9,1.325,1.325,0,0,1,.037.5,2.228,2.228,0,0,1-.712,1.1,2.41,2.41,0,0,0-.529.5,1.633,1.633,0,0,0-.512.6,0.63,0.63,0,0,1,.183.3,1.969,1.969,0,0,0,.438.5c0.159,0.3.388,0.4,0.548,0.7a8.779,8.779,0,0,0,1.533,1.4c0.078,0.1.14,0.2,0.219,0.3,0.219,0.1.426,0.3,0.657,0.4a2.5,2.5,0,0,0,.4.3,2.987,2.987,0,0,1,.638-0.7,3.571,3.571,0,0,1,1.442-1.1,0.8,0.8,0,0,1,.694.1,7.144,7.144,0,0,1,1.46,1.3l1.15,1.2a1.479,1.479,0,0,1,.53.5c0.064,0.2.107,0.4,0.146,0.5a1.67,1.67,0,0,1-.037.7,3.971,3.971,0,0,1-1,1.1,3.444,3.444,0,0,1-.876.8,3.267,3.267,0,0,1-.986.3,5.587,5.587,0,0,1-1.825,0c-0.1,0-.207-0.1-0.31-0.1a3.644,3.644,0,0,1-1-.3c-0.476-.2-0.946-0.4-1.387-0.6a3.238,3.238,0,0,0-.749-0.5,14.443,14.443,0,0,1-5.257-5.3,3.637,3.637,0,0,0-.438-0.7,10.584,10.584,0,0,1-.438-1,5.8,5.8,0,0,1-.146-4.5,2.675,2.675,0,0,1,.712-0.7,5.978,5.978,0,0,1,.785-0.8,0.523,0.523,0,0,1,.31-0.2A0.3,0.3,0,0,0,548.826,11307.2Zm0.11,0.8a0.227,0.227,0,0,1-.219.1l-0.84.9a1.381,1.381,0,0,0-.438.5c-0.71,1.6.017,3.6,0.693,4.7a27.748,27.748,0,0,0,1.643,2.5c0.093,0.1.236,0.2,0.329,0.3a1.311,1.311,0,0,0,.566.6,0.355,0.355,0,0,0,.164.2,4.7,4.7,0,0,0,.767.7c0.319,0.3.624,0.5,0.949,0.8a14.209,14.209,0,0,0,1.953,1.1,5.718,5.718,0,0,0,3.778.8c0.218-.1.4-0.1,0.584-0.2a1.644,1.644,0,0,0,.584-0.5c0.292-.3.584-0.5,0.876-0.8,0.032-.1.038-0.1,0.073-0.2a1.453,1.453,0,0,0-.657-1.1c-0.115-.1-0.213-0.2-0.328-0.3-0.359-.4-0.736-0.7-1.1-1.1a1.809,1.809,0,0,0-.785-0.7,0.9,0.9,0,0,0-.676.4,11.382,11.382,0,0,0-1.1,1.1,4.225,4.225,0,0,1-.456.4,0.582,0.582,0,0,0-.4-0.1c-0.235-.1-0.485-0.3-0.693-0.4a15.926,15.926,0,0,1-2.9-2.8,3.738,3.738,0,0,1-1.058-1.8c0.239-.2.469-0.5,0.675-0.7a8.882,8.882,0,0,0,1.041-1.1H552a0.65,0.65,0,0,0,.11-0.5,0.912,0.912,0,0,1-.11-0.1,1.849,1.849,0,0,0-.493-0.5,18.718,18.718,0,0,0-1.46-1.4A1.572,1.572,0,0,0,548.936,11308Z" transform="translate(-546.344 -11307.2)"/>
</svg>
